<svg xmlns="http://www.w3.org/2000/svg" xmlns:xlink="http://www.w3.org/1999/xlink" width="519" zoomAndPan="magnify" viewBox="0 0 389.25 389.249986" height="519" preserveAspectRatio="xMidYMid meet" version="1.2"><defs><clipPath id="e088c88710"><path d="M 0 0 L 388.5 0 L 388.5 388.5 L 0 388.5 Z M 0 0 "/></clipPath><clipPath id="591a8781ee"><path d="M 65 348 L 108 348 L 108 388.5 L 65 388.5 Z M 65 348 "/></clipPath><clipPath id="d5267aafef"><path d="M 3.09375 180 L 60 180 L 60 234 L 3.09375 234 Z M 3.09375 180 "/></clipPath><clipPath id="5771f2560d"><path d="M 343 322 L 385.609375 322 L 385.609375 363 L 343 363 Z M 343 322 "/></clipPath><clipPath id="4be528aee2"><path d="M 39 0 L 349 0 L 349 388.5 L 39 388.5 Z M 39 0 "/></clipPath><clipPath id="1028ab8446"><rect x="0" width="310" y="0" height="389"/></clipPath></defs><g id="93450b1186"><g clip-rule="nonzero" clip-path="url(#e088c88710)"><path style=" stroke:none;fill-rule:nonzero;fill:#ffffff;fill-opacity:1;" d="M 0 0 L 388.5 0 L 388.5 388.5 L 0 388.5 Z M 0 0 "/><path style=" stroke:none;fill-rule:nonzero;fill:#d9d9d9;fill-opacity:1;" d="M 0 0 L 388.5 0 L 388.5 388.5 L 0 388.5 Z M 0 0 "/></g><path style=" stroke:none;fill-rule:nonzero;fill:#a6a6a6;fill-opacity:1;" d="M 70.6875 0.00390625 L 71.574219 19.378906 C 71.703125 22.214844 74.460938 24.175781 77.183594 23.367188 L 93.746094 18.441406 L 77.160156 25.402344 C 74.714844 26.429688 73.738281 29.378906 75.09375 31.660156 L 84.9375 48.269531 L 74.214844 33.628906 C 72.46875 31.246094 68.910156 31.246094 67.164062 33.628906 L 56.4375 48.269531 L 66.285156 31.660156 C 67.636719 29.378906 66.664062 26.429688 64.21875 25.402344 L 47.632812 18.441406 L 64.195312 23.367188 C 66.917969 24.175781 69.675781 22.214844 69.804688 19.378906 Z M 70.6875 0.00390625 "/><path style=" stroke:none;fill-rule:nonzero;fill:#a6a6a6;fill-opacity:1;" d="M 173.847656 25.609375 L 174.164062 31.902344 C 174.304688 34.683594 176.980469 36.628906 179.667969 35.902344 L 185.75 34.257812 L 179.863281 36.503906 C 177.261719 37.496094 176.238281 40.636719 177.761719 42.972656 L 181.203125 48.246094 L 177.25 43.34375 C 175.5 41.175781 172.195312 41.175781 170.449219 43.34375 L 166.492188 48.246094 L 169.9375 42.972656 C 171.457031 40.636719 170.4375 37.496094 167.832031 36.503906 L 161.949219 34.257812 L 168.03125 35.902344 C 170.71875 36.628906 173.394531 34.683594 173.53125 31.902344 Z M 173.847656 25.609375 "/><path style=" stroke:none;fill-rule:nonzero;fill:#a6a6a6;fill-opacity:1;" d="M 255.507812 136.082031 L 255.300781 131.917969 L 255.089844 136.082031 C 254.953125 138.867188 252.277344 140.808594 249.589844 140.082031 L 245.5625 138.992188 L 249.457031 140.480469 C 252.0625 141.472656 253.082031 144.617188 251.558594 146.949219 L 249.28125 150.441406 L 251.898438 147.195312 C 253.648438 145.027344 256.953125 145.027344 258.699219 147.195312 L 261.320312 150.441406 L 259.039062 146.949219 C 257.519531 144.617188 258.539062 141.472656 261.144531 140.480469 L 265.039062 138.992188 L 261.011719 140.082031 C 258.324219 140.808594 255.648438 138.867188 255.507812 136.082031 Z M 255.507812 136.082031 "/><path style=" stroke:none;fill-rule:nonzero;fill:#a6a6a6;fill-opacity:1;" d="M 115.832031 277.664062 L 116.222656 285.496094 C 116.363281 288.277344 119.039062 290.222656 121.726562 289.496094 L 129.296875 287.449219 L 121.972656 290.242188 C 119.367188 291.234375 118.347656 294.378906 119.867188 296.710938 L 124.15625 303.28125 L 119.230469 297.175781 C 117.480469 295.007812 114.179688 295.007812 112.429688 297.175781 L 107.507812 303.28125 L 111.792969 296.710938 C 113.316406 294.378906 112.292969 291.234375 109.691406 290.242188 L 102.363281 287.449219 L 109.933594 289.496094 C 112.625 290.222656 115.296875 288.277344 115.4375 285.496094 Z M 115.832031 277.664062 "/><path style=" stroke:none;fill-rule:nonzero;fill:#a6a6a6;fill-opacity:1;" d="M 245.609375 351.246094 L 245.546875 349.992188 L 245.480469 351.246094 C 245.34375 354.03125 242.667969 355.972656 239.980469 355.246094 L 238.765625 354.917969 L 239.941406 355.367188 C 242.542969 356.359375 243.566406 359.5 242.042969 361.835938 L 241.355469 362.886719 L 242.144531 361.910156 C 243.894531 359.742188 247.199219 359.742188 248.945312 361.910156 L 249.738281 362.886719 L 249.046875 361.835938 C 247.527344 359.5 248.546875 356.359375 251.148438 355.367188 L 252.328125 354.917969 L 251.113281 355.246094 C 248.421875 355.972656 245.75 354.03125 245.609375 351.246094 Z M 245.609375 351.246094 "/><path style=" stroke:none;fill-rule:nonzero;fill:#a6a6a6;fill-opacity:1;" d="M 309.820312 7.042969 L 310.328125 17.089844 C 310.464844 19.871094 313.140625 21.8125 315.828125 21.085938 L 325.539062 18.464844 L 316.140625 22.046875 C 313.539062 23.042969 312.515625 26.183594 314.039062 28.515625 L 319.535156 36.941406 L 313.222656 29.109375 C 311.472656 26.941406 308.167969 26.941406 306.421875 29.109375 L 300.105469 36.941406 L 305.601562 28.515625 C 307.125 26.183594 306.101562 23.042969 303.5 22.046875 L 294.101562 18.464844 L 303.8125 21.085938 C 306.503906 21.8125 309.175781 19.871094 309.316406 17.089844 Z M 309.820312 7.042969 "/><path style=" stroke:none;fill-rule:nonzero;fill:#a6a6a6;fill-opacity:1;" d="M 40.917969 114.101562 L 40.722656 110.195312 L 40.527344 114.101562 C 40.386719 116.882812 37.714844 118.824219 35.023438 118.097656 L 31.25 117.078125 L 34.902344 118.472656 C 37.503906 119.464844 38.527344 122.605469 37.003906 124.941406 L 34.867188 128.214844 L 37.320312 125.171875 C 39.070312 123.003906 42.375 123.003906 44.125 125.171875 L 46.578125 128.214844 L 44.441406 124.941406 C 42.917969 122.605469 43.941406 119.464844 46.542969 118.472656 L 50.195312 117.078125 L 46.421875 118.097656 C 43.734375 118.824219 41.058594 116.882812 40.917969 114.101562 Z M 40.917969 114.101562 "/><path style=" stroke:none;fill-rule:nonzero;fill:#a6a6a6;fill-opacity:1;" d="M 191.699219 201.574219 L 192.007812 207.757812 C 192.148438 210.539062 194.824219 212.480469 197.511719 211.753906 L 203.488281 210.140625 L 197.703125 212.347656 C 195.101562 213.339844 194.078125 216.480469 195.601562 218.816406 L 198.984375 224 L 195.097656 219.179688 C 193.351562 217.011719 190.046875 217.011719 188.296875 219.179688 L 184.410156 224 L 187.792969 218.816406 C 189.316406 216.480469 188.292969 213.339844 185.691406 212.347656 L 179.90625 210.140625 L 185.882812 211.753906 C 188.574219 212.480469 191.246094 210.539062 191.386719 207.757812 Z M 191.699219 201.574219 "/><path style=" stroke:none;fill-rule:nonzero;fill:#a6a6a6;fill-opacity:1;" d="M 117.066406 89.746094 L 116.855469 85.558594 L 116.644531 89.746094 C 116.503906 92.527344 113.832031 94.472656 111.140625 93.746094 L 107.09375 92.652344 L 111.011719 94.144531 C 113.613281 95.136719 114.636719 98.28125 113.113281 100.613281 L 110.824219 104.125 L 113.453125 100.859375 C 115.203125 98.691406 118.507812 98.691406 120.257812 100.859375 L 122.886719 104.125 L 120.597656 100.613281 C 119.074219 98.28125 120.097656 95.136719 122.699219 94.144531 L 126.617188 92.652344 L 122.570312 93.746094 C 119.878906 94.472656 117.207031 92.527344 117.066406 89.746094 Z M 117.066406 89.746094 "/><path style=" stroke:none;fill-rule:nonzero;fill:#a6a6a6;fill-opacity:1;" d="M 123.667969 158.613281 C 123.78125 160.796875 125.875 162.324219 127.988281 161.753906 C 125.945312 162.53125 125.144531 164.996094 126.335938 166.828125 C 124.964844 165.125 122.371094 165.125 121 166.828125 C 122.195312 164.996094 121.394531 162.53125 119.351562 161.753906 C 121.460938 162.324219 123.558594 160.796875 123.667969 158.613281 Z M 123.667969 158.613281 "/><g clip-rule="nonzero" clip-path="url(#591a8781ee)"><path style=" stroke:none;fill-rule:nonzero;fill:#a6a6a6;fill-opacity:1;" d="M 86.882812 363.785156 L 86.117188 348.535156 L 85.351562 363.785156 C 85.210938 366.566406 82.535156 368.507812 79.847656 367.78125 L 65.105469 363.796875 L 79.375 369.238281 C 81.976562 370.234375 82.996094 373.375 81.476562 375.710938 L 73.132812 388.496094 L 82.714844 376.609375 C 84.464844 374.441406 87.769531 374.441406 89.515625 376.609375 L 99.101562 388.496094 L 90.757812 375.710938 C 89.234375 373.375 90.257812 370.234375 92.859375 369.238281 L 107.125 363.796875 L 92.386719 367.78125 C 89.695312 368.507812 87.023438 366.566406 86.882812 363.785156 Z M 86.882812 363.785156 "/></g><path style=" stroke:none;fill-rule:nonzero;fill:#a6a6a6;fill-opacity:1;" d="M 276.539062 211.28125 L 276.925781 219.03125 C 277.066406 221.8125 279.738281 223.753906 282.429688 223.027344 L 289.917969 221.003906 L 282.671875 223.769531 C 280.066406 224.761719 279.046875 227.90625 280.570312 230.238281 L 284.808594 236.734375 L 279.9375 230.695312 C 278.191406 228.527344 274.886719 228.527344 273.136719 230.695312 L 268.269531 236.734375 L 272.507812 230.238281 C 274.03125 227.90625 273.007812 224.761719 270.40625 223.769531 L 263.15625 221.003906 L 270.644531 223.027344 C 273.335938 223.753906 276.007812 221.8125 276.148438 219.03125 Z M 276.539062 211.28125 "/><path style=" stroke:none;fill-rule:nonzero;fill:#a6a6a6;fill-opacity:1;" d="M 119.691406 212.757812 L 119.390625 206.792969 L 119.089844 212.757812 C 118.949219 215.539062 116.277344 217.480469 113.589844 216.753906 L 107.824219 215.195312 L 113.402344 217.324219 C 116.003906 218.316406 117.027344 221.460938 115.503906 223.792969 L 112.242188 228.796875 L 115.988281 224.144531 C 117.738281 221.976562 121.042969 221.976562 122.792969 224.144531 L 126.539062 228.796875 L 123.277344 223.792969 C 121.753906 221.460938 122.777344 218.316406 125.378906 217.324219 L 130.957031 215.195312 L 125.191406 216.753906 C 122.503906 217.480469 119.832031 215.539062 119.691406 212.757812 Z M 119.691406 212.757812 "/><g clip-rule="nonzero" clip-path="url(#d5267aafef)"><path style=" stroke:none;fill-rule:nonzero;fill:#a6a6a6;fill-opacity:1;" d="M 31.210938 180.09375 L 32.332031 202.335938 C 32.46875 205.117188 35.144531 207.058594 37.832031 206.332031 L 59.328125 200.523438 L 38.523438 208.457031 C 35.921875 209.453125 34.898438 212.59375 36.421875 214.929688 L 48.589844 233.578125 L 34.613281 216.242188 C 32.863281 214.074219 29.558594 214.074219 27.8125 216.242188 L 13.835938 233.578125 L 26.003906 214.929688 C 27.523438 212.59375 26.503906 209.453125 23.898438 208.457031 L 3.09375 200.523438 L 24.589844 206.332031 C 27.28125 207.058594 29.953125 205.117188 30.09375 202.335938 Z M 31.210938 180.09375 "/></g><g clip-rule="nonzero" clip-path="url(#5771f2560d)"><path style=" stroke:none;fill-rule:nonzero;fill:#a6a6a6;fill-opacity:1;" d="M 365.148438 338.179688 L 364.382812 322.929688 L 363.617188 338.179688 C 363.476562 340.960938 360.800781 342.902344 358.113281 342.175781 L 343.371094 338.191406 L 357.640625 343.632812 C 360.242188 344.625 361.261719 347.769531 359.742188 350.105469 L 351.398438 362.890625 L 360.980469 351.003906 C 362.730469 348.835938 366.035156 348.835938 367.78125 351.003906 L 377.367188 362.890625 L 369.023438 350.105469 C 367.5 347.769531 368.523438 344.625 371.125 343.632812 L 385.390625 338.191406 L 370.652344 342.175781 C 367.960938 342.902344 365.289062 340.960938 365.148438 338.179688 Z M 365.148438 338.179688 "/></g><path style=" stroke:none;fill-rule:nonzero;fill:#a6a6a6;fill-opacity:1;" d="M 187.222656 119.175781 L 187.609375 126.921875 C 187.75 129.703125 190.421875 131.644531 193.113281 130.917969 L 200.601562 128.898438 L 193.355469 131.660156 C 190.75 132.652344 189.730469 135.796875 191.253906 138.128906 L 195.492188 144.625 L 190.621094 138.589844 C 188.875 136.417969 185.570312 136.417969 183.820312 138.589844 L 178.953125 144.625 L 183.191406 138.128906 C 184.710938 135.796875 183.691406 132.652344 181.085938 131.660156 L 173.839844 128.898438 L 181.328125 130.917969 C 184.019531 131.644531 186.691406 129.703125 186.832031 126.921875 Z M 187.222656 119.175781 "/><path style=" stroke:none;fill-rule:nonzero;fill:#a6a6a6;fill-opacity:1;" d="M 261.878906 54.675781 L 261.277344 42.722656 L 260.679688 54.675781 C 260.539062 57.457031 257.863281 59.402344 255.175781 58.675781 L 243.617188 55.550781 L 254.804688 59.816406 C 257.40625 60.8125 258.425781 63.953125 256.90625 66.285156 L 250.363281 76.3125 L 257.878906 66.992188 C 259.625 64.824219 262.929688 64.824219 264.679688 66.992188 L 272.191406 76.3125 L 265.652344 66.285156 C 264.128906 63.953125 265.152344 60.8125 267.753906 59.816406 L 278.9375 55.550781 L 267.382812 58.675781 C 264.695312 59.402344 262.019531 57.457031 261.878906 54.675781 Z M 261.878906 54.675781 "/><path style=" stroke:none;fill-rule:nonzero;fill:#a6a6a6;fill-opacity:1;" d="M 252.414062 267.710938 L 253.253906 284.433594 C 253.394531 287.21875 256.070312 289.160156 258.757812 288.433594 L 274.921875 284.066406 L 259.277344 290.035156 C 256.675781 291.027344 255.652344 294.167969 257.175781 296.503906 L 266.324219 310.523438 L 255.816406 297.492188 C 254.066406 295.320312 250.761719 295.320312 249.011719 297.492188 L 238.503906 310.523438 L 247.652344 296.503906 C 249.175781 294.167969 248.152344 291.027344 245.550781 290.035156 L 229.90625 284.066406 L 246.070312 288.433594 C 248.757812 289.160156 251.433594 287.21875 251.574219 284.433594 Z M 252.414062 267.710938 "/><path style=" stroke:none;fill-rule:nonzero;fill:#a6a6a6;fill-opacity:1;" d="M 258.765625 296.128906 L 259.964844 292.890625 L 260.074219 292.933594 L 258.878906 296.171875 Z M 258.765625 296.128906 "/><path style=" stroke:none;fill-rule:nonzero;fill:#a6a6a6;fill-opacity:1;" d="M 191.777344 269.648438 L 191.675781 267.660156 L 191.578125 269.648438 C 191.4375 272.433594 188.761719 274.375 186.074219 273.648438 L 184.152344 273.128906 L 186.011719 273.835938 C 188.617188 274.832031 189.636719 277.972656 188.113281 280.308594 L 187.027344 281.976562 L 188.277344 280.425781 C 190.023438 278.253906 193.328125 278.253906 195.078125 280.425781 L 196.328125 281.976562 L 195.238281 280.308594 C 193.71875 277.972656 194.738281 274.832031 197.34375 273.835938 L 199.203125 273.128906 L 197.28125 273.648438 C 194.589844 274.375 191.917969 272.433594 191.777344 269.648438 Z M 191.777344 269.648438 "/><path style=" stroke:none;fill-rule:nonzero;fill:#a6a6a6;fill-opacity:1;" d="M 339.0625 239.195312 L 339.902344 255.917969 C 340.042969 258.699219 342.714844 260.640625 345.40625 259.914062 L 361.570312 255.546875 L 345.925781 261.515625 C 343.320312 262.507812 342.300781 265.652344 343.824219 267.984375 L 352.972656 282.007812 L 342.460938 268.972656 C 340.714844 266.804688 337.410156 266.804688 335.660156 268.972656 L 325.152344 282.007812 L 334.300781 267.984375 C 335.820312 265.652344 334.800781 262.507812 332.199219 261.515625 L 316.554688 255.546875 L 332.71875 259.914062 C 335.40625 260.640625 338.082031 258.699219 338.222656 255.917969 Z M 339.0625 239.195312 "/><path style=" stroke:none;fill-rule:nonzero;fill:#a6a6a6;fill-opacity:1;" d="M 20.046875 312.332031 L 19.589844 303.292969 L 19.136719 312.332031 C 18.996094 315.113281 16.324219 317.054688 13.632812 316.332031 L 4.898438 313.96875 L 13.351562 317.195312 C 15.957031 318.1875 16.976562 321.332031 15.453125 323.664062 L 10.511719 331.242188 L 16.191406 324.199219 C 17.9375 322.027344 21.242188 322.027344 22.992188 324.199219 L 28.671875 331.242188 L 23.726562 323.664062 C 22.203125 321.332031 23.226562 318.1875 25.828125 317.195312 L 34.28125 313.96875 L 25.546875 316.332031 C 22.859375 317.054688 20.183594 315.113281 20.046875 312.332031 Z M 20.046875 312.332031 "/><path style=" stroke:none;fill-rule:nonzero;fill:#a6a6a6;fill-opacity:1;" d="M 168.011719 322.929688 L 168.40625 330.761719 C 168.546875 333.542969 171.21875 335.488281 173.910156 334.757812 L 181.480469 332.714844 L 174.152344 335.507812 C 171.550781 336.5 170.527344 339.644531 172.050781 341.976562 L 176.335938 348.546875 L 171.414062 342.441406 C 169.664062 340.269531 166.359375 340.269531 164.613281 342.441406 L 159.6875 348.546875 L 163.972656 341.976562 C 165.496094 339.644531 164.476562 336.5 161.871094 335.507812 L 154.546875 332.714844 L 162.117188 334.757812 C 164.804688 335.488281 167.480469 333.542969 167.617188 330.761719 Z M 168.011719 322.929688 "/><path style=" stroke:none;fill-rule:nonzero;fill:#a6a6a6;fill-opacity:1;" d="M 330.324219 182.382812 L 329.933594 174.632812 L 329.542969 182.382812 C 329.40625 185.164062 326.730469 187.105469 324.042969 186.378906 L 316.554688 184.355469 L 323.800781 187.121094 C 326.402344 188.113281 327.425781 191.253906 325.902344 193.589844 L 321.664062 200.085938 L 326.535156 194.046875 C 328.28125 191.878906 331.585938 191.878906 333.335938 194.046875 L 338.203125 200.085938 L 333.964844 193.589844 C 332.441406 191.253906 333.464844 188.113281 336.066406 187.121094 L 343.3125 184.355469 L 335.828125 186.378906 C 333.136719 187.105469 330.460938 185.164062 330.324219 182.382812 Z M 330.324219 182.382812 "/><path style=" stroke:none;fill-rule:nonzero;fill:#a6a6a6;fill-opacity:1;" d="M 340.882812 76.335938 L 341.632812 91.066406 C 341.773438 93.84375 344.4375 95.78125 347.125 95.066406 L 361.574219 91.203125 L 347.65625 96.453125 C 345.035156 97.441406 344.007812 100.609375 345.550781 102.949219 L 353.671875 115.257812 L 344.269531 103.726562 C 342.523438 101.582031 339.246094 101.582031 337.5 103.726562 L 328.097656 115.257812 L 336.21875 102.949219 C 337.761719 100.609375 336.734375 97.441406 334.113281 96.453125 L 320.195312 91.203125 L 334.644531 95.066406 C 337.332031 95.78125 339.996094 93.84375 340.136719 91.066406 Z M 340.882812 76.335938 "/><g clip-rule="nonzero" clip-path="url(#4be528aee2)"><g transform="matrix(1,0,0,1,39,0)"><g clip-path="url(#1028ab8446)"><g style="fill:#000000;fill-opacity:1;"><g transform="translate(0.981508, 316.103377)"><path style="stroke:none" d="M 149.984375 14.03125 C 131.023438 19.21875 109.46875 21.8125 85.3125 21.8125 C 61.15625 21.8125 41.546875 16.679688 26.484375 6.421875 C 11.421875 -3.828125 3.890625 -18.429688 3.890625 -37.390625 C 3.890625 -49.597656 9.601562 -60.050781 21.03125 -68.75 C 32.457031 -77.457031 49.082031 -81.8125 70.90625 -81.8125 C 98.945312 -81.8125 122.0625 -73.367188 140.25 -56.484375 C 145.4375 -51.546875 150.367188 -46.351562 155.046875 -40.90625 C 179.460938 -53.113281 198.289062 -70.445312 211.53125 -92.90625 C 224.78125 -115.375 231.40625 -140.304688 231.40625 -167.703125 C 231.40625 -195.109375 225.039062 -215.300781 212.3125 -228.28125 C 199.582031 -241.269531 183.867188 -247.765625 165.171875 -247.765625 C 138.679688 -247.765625 117.125 -239.191406 100.5 -222.046875 C 83.882812 -204.910156 75.578125 -181.925781 75.578125 -153.09375 C 75.578125 -142.1875 76.8125 -133.03125 79.28125 -125.625 C 81.75 -118.226562 82.984375 -112.710938 82.984375 -109.078125 C 82.984375 -105.441406 81.550781 -103.625 78.6875 -103.625 C 67.519531 -103.625 57.519531 -109.398438 48.6875 -120.953125 C 39.863281 -132.515625 35.453125 -148.488281 35.453125 -168.875 C 35.453125 -189.257812 39.28125 -207.175781 46.9375 -222.625 C 54.601562 -238.082031 64.671875 -251.003906 77.140625 -261.390625 C 102.328125 -282.171875 132.515625 -292.5625 167.703125 -292.5625 C 202.898438 -292.5625 232.179688 -282.691406 255.546875 -262.953125 C 281.523438 -241.140625 294.644531 -211.273438 294.90625 -173.359375 C 294.90625 -129.984375 284.382812 -92.710938 263.34375 -61.546875 C 245.425781 -35.054688 220.625 -14.539062 188.9375 0 C 200.101562 11.164062 212.375 16.75 225.75 16.75 C 239.125 16.75 250.03125 16.296875 258.46875 15.390625 C 266.914062 14.484375 273.800781 14.03125 279.125 14.03125 C 284.445312 14.03125 287.109375 15.195312 287.109375 17.53125 C 287.109375 23.5 281.328125 30.1875 269.765625 37.59375 C 258.210938 45 241.398438 48.703125 219.328125 48.703125 C 192.316406 48.703125 169.203125 37.144531 149.984375 14.03125 Z M 118.421875 -28.4375 C 106.222656 -40.644531 93.5 -46.75 80.25 -46.75 C 72.195312 -46.75 65.25 -45.835938 59.40625 -44.015625 C 53.5625 -42.203125 50.640625 -39.476562 50.640625 -35.84375 C 50.640625 -28.050781 62.328125 -24.15625 85.703125 -24.15625 C 94.015625 -24.15625 104.921875 -25.582031 118.421875 -28.4375 Z M 118.421875 -28.4375 "/></g></g></g></g></g></g></svg>